<svg width="135" height="218" viewBox="0 0 135 218" fill="none" xmlns="http://www.w3.org/2000/svg">
<path fill-rule="evenodd" clip-rule="evenodd" d="M47.852 215.115H61.563L67.244 185.649V216.895H91.404V184.394C91.404 184.394 108.073 215.115 121.28 215.115H134.488C126.39 192.508 127.43 187.576 134.488 168.063V122.728C134.488 107.979 122.533 96.025 107.785 96.025H26.703C11.955 96.025 0 107.979 0 122.728V214.628H20.215V181.873L24.903 213.721H34.728L38.939 189.861L47.852 215.115Z" fill="#FBB713"/>
<path opacity="0.25" fill-rule="evenodd" clip-rule="evenodd" d="M51.9611 215.115V195.839L48.2451 215.115H51.9611Z" fill="black"/>
<path opacity="0.25" fill-rule="evenodd" clip-rule="evenodd" d="M23.6553 200.05L23.2383 202.412L24.9033 213.721H28.4813L23.6553 200.05Z" fill="black"/>
<path opacity="0.25" fill-rule="evenodd" clip-rule="evenodd" d="M4.93066 192.062V214.628H8.25266L4.93066 192.062Z" fill="black"/>
<path opacity="0.25" fill-rule="evenodd" clip-rule="evenodd" d="M76.1211 194.583V216.895H91.4041V216.28C82.9951 207.215 76.1211 194.583 76.1211 194.583Z" fill="black"/>
<path opacity="0.25" fill-rule="evenodd" clip-rule="evenodd" d="M134.488 122.728C134.488 107.979 122.533 96.025 107.785 96.025H26.7031C17.8511 96.025 10.0651 100.381 5.20605 107.014C7.20905 106.535 9.27005 106.214 11.4191 106.214H92.5021C107.249 106.214 119.205 118.169 119.205 132.916V178.252C113.605 193.732 111.814 200.062 115.348 213.293C117.357 214.407 119.356 215.115 121.281 215.115H134.488C126.39 192.508 127.43 187.576 134.488 168.063V122.728Z" fill="black"/>
<path fill-rule="evenodd" clip-rule="evenodd" d="M81.5879 97.884L89.7899 15.867C90.6389 7.38101 83.9749 0.0150146 75.4449 0.0150146H59.0419C50.5139 0.0150146 43.8489 7.38101 44.6969 15.867L52.8989 97.884H81.5879Z" fill="#142A3B"/>
<path fill-rule="evenodd" clip-rule="evenodd" d="M70.8458 44.396L72.9068 23.798C73.1188 21.668 71.4448 19.818 69.3028 19.818H65.1838C63.0418 19.818 61.3688 21.668 61.5818 23.798L63.6408 44.396H70.8458Z" fill="#EDEDED"/>
<path fill-rule="evenodd" clip-rule="evenodd" d="M134.488 144.697H0.000976562V137.467H134.488V144.697Z" fill="#142A3B"/>
<path fill-rule="evenodd" clip-rule="evenodd" d="M134.488 129.917H0.000976562V122.687H134.488V129.917Z" fill="#142A3B"/>
</svg>
