<svg width="174" height="218" viewBox="0 0 174 218" fill="none" xmlns="http://www.w3.org/2000/svg">
<g clip-path="url(#clip0_611_6098)">
<path fill-rule="evenodd" clip-rule="evenodd" d="M137.998 217.234H0.00683594V47.239H137.998V217.234Z" fill="#FF3A2F"/>
<path opacity="0.25" fill-rule="evenodd" clip-rule="evenodd" d="M113.693 47.828V165.855C113.693 179.792 102.343 191.089 88.3392 191.089H0.28418V217.137H137.948V47.828H113.693Z" fill="#020403"/>
<path fill-rule="evenodd" clip-rule="evenodd" d="M40.5039 195.739C38.5079 195.739 37.0039 194.12 37.0039 192.125V90.9139C37.0039 88.9169 38.5079 87.299 40.5039 87.299C42.4999 87.299 44.0039 88.9169 44.0039 90.9139V192.125C44.0039 194.12 42.4999 195.739 40.5039 195.739Z" fill="#142A3B"/>
<path fill-rule="evenodd" clip-rule="evenodd" d="M94.501 195.739C92.505 195.739 91.001 194.12 91.001 192.125V90.9139C91.001 88.9169 92.505 87.299 94.501 87.299C96.497 87.299 98.001 88.9169 98.001 90.9139V192.125C98.001 194.12 96.497 195.739 94.501 195.739Z" fill="#142A3B"/>
<path opacity="0.35" fill-rule="evenodd" clip-rule="evenodd" d="M137.193 68.385V47.828H1.97363L137.193 68.385Z" fill="#020403"/>
<path fill-rule="evenodd" clip-rule="evenodd" d="M115.919 41.535L60.5322 24.103L68.1942 -0.0150146L123.582 17.417L115.919 41.535Z" fill="#FF3A2F"/>
<path fill-rule="evenodd" clip-rule="evenodd" d="M167.848 63.301C167.307 63.301 166.761 63.22 166.219 63.049L6.97864 12.932C4.12064 12.033 2.53364 8.98904 3.43364 6.13304C4.33364 3.27504 7.37764 1.69104 10.2316 2.58804L169.472 52.704C172.331 53.604 173.917 56.649 173.016 59.505C172.29 61.819 170.152 63.301 167.848 63.301Z" fill="#FF3A2F"/>
</g>
<defs>
<clipPath id="clip0_611_6098">
<rect width="174" height="218" fill="white"/>
</clipPath>
</defs>
</svg>
